<?xml version="1.0"?>
<svg xmlns="http://www.w3.org/2000/svg" xmlns:xlink="http://www.w3.org/1999/xlink" xmlns:svgjs="http://svgjs.com/svgjs" version="1.1" width="512px" height="512px" x="0" y="0" viewBox="0 0 24 24" style="enable-background:new 0 0 512 512" xml:space="preserve"><g><path d="M12.836,.028C9.356-.207,5.961,1.067,3.509,3.521,1.057,5.977-.211,9.378,.029,12.854c.441,6.354,6.053,11.146,13.054,11.146h5.917c2.757,0,5-2.243,5-5v-6.66C24,5.861,19.097,.454,12.836,.028Zm2.871,14.265c.391,.391,.391,1.023,0,1.414-.195,.195-.451,.293-.707,.293s-.512-.098-.707-.293l-2.293-2.293-2.293,2.293c-.195,.195-.451,.293-.707,.293s-.512-.098-.707-.293c-.391-.391-.391-1.023,0-1.414l2.293-2.293-2.293-2.293c-.391-.391-.391-1.023,0-1.414s1.023-.391,1.414,0l2.293,2.293,2.293-2.293c.391-.391,1.023-.391,1.414,0s.391,1.023,0,1.414l-2.293,2.293,2.293,2.293Z" fill="#ff0000" data-original="#000000"/></g></svg>
