<?xml version="1.0"?>
<svg xmlns="http://www.w3.org/2000/svg" xmlns:xlink="http://www.w3.org/1999/xlink" xmlns:svgjs="http://svgjs.com/svgjs" version="1.1" width="512px" height="512px" x="0" y="0" viewBox="0 0 24 24" style="enable-background:new 0 0 512 512" xml:space="preserve"><g><path d="M12.5,0H5.5c-1.378,0-2.5,1.121-2.5,2.5v6.5H15V2.5c0-1.379-1.122-2.5-2.5-2.5Zm-1.5,2v2H7V2h4Zm12.152,6.681c-.515-.469-1.186-.712-1.878-.678-.697,.032-1.339,.334-1.794,.835l-3.541,3.737c.032,.21,.065,.42,.065,.638,0,2.083-1.555,3.876-3.617,4.17l-4.241,.606-.283-1.979,4.241-.606c1.084-.155,1.9-1.097,1.9-2.191,0-1.22-.993-2.213-2.213-2.213H3.003C1.349,11,.003,12.346,.003,14v7c0,1.654,1.346,3,3,3H12.667l10.674-11.655c.948-1.062,.862-2.707-.189-3.665Z" fill="#ffffff" data-original="#000000"/></g></svg>
