<?xml version="1.0"?>
<svg xmlns="http://www.w3.org/2000/svg" xmlns:xlink="http://www.w3.org/1999/xlink" xmlns:svgjs="http://svgjs.com/svgjs" version="1.1" width="512px" height="512px" x="0" y="0" viewBox="0 0 24 24" style="enable-background:new 0 0 512 512" xml:space="preserve"><g><path d="m20.5 4h-5.5v-1a3 3 0 0 0 -6 0v1h-5.5a3.5 3.5 0 0 0 -3.5 3.5v16.5h24v-16.5a3.5 3.5 0 0 0 -3.5-3.5zm.5 17h-18v-13.5a.5.5 0 0 1 .5-.5h5.5v2h6v-2h5.5a.5.5 0 0 1 .5.5zm-16-10h5v8h-5zm7 0h7v3h-7zm0 5h5v3h-5z" fill="#ffffff" data-original="#000000"/></g></svg>
